<svg xmlns="http://www.w3.org/2000/svg" role="img" viewBox="0 0 512 512">
  <defs>
    <linearGradient id="g" x1="0" y1="0" x2="0" y2="1">
      <stop offset="0" stop-color="#FFFDF8"/>
      <stop offset="1" stop-color="#FFEDDC"/>
    </linearGradient>
  </defs>
  <rect width="512" height="512" rx="72" fill="url(#g)"/>
  <rect width="512" height="188" rx="72" fill="#B78BF0"/>
  <path d="M0 150 H512 Q480 186 448 150 Q416 186 384 150 Q352 186 320 150 Q288 186 256 150 Q224 186 192 150 Q160 186 128 150 Q96 186 64 150 Q32 186 0 150 Z" fill="#fff"/>
  <circle cx="32" cy="168" r="6" fill="#8A55D8"/><circle cx="96" cy="168" r="6" fill="#8A55D8"/><circle cx="160" cy="168" r="6" fill="#8A55D8"/><circle cx="224" cy="168" r="6" fill="#8A55D8"/><circle cx="288" cy="168" r="6" fill="#8A55D8"/><circle cx="352" cy="168" r="6" fill="#8A55D8"/><circle cx="416" cy="168" r="6" fill="#8A55D8"/><circle cx="480" cy="168" r="6" fill="#8A55D8"/>
  <path d="M52 20 C54 36 62 44 78 46 C62 48 54 56 52 72 C50 56 42 48 26 46 C42 44 50 36 52 20 Z" fill="#fff" opacity="0.95"/>
  <path d="M438 112 A14 14 0 0 1 466 112" stroke="#8A55D8" stroke-width="5" fill="none" stroke-linecap="round"/>
  <path d="M443 112 A9 9 0 0 1 461 112" stroke="#fff" stroke-width="5" fill="none" stroke-linecap="round"/>
  <path d="M448 112 A4 4 0 0 1 456 112" stroke="#B78BF0" stroke-width="5" fill="none" stroke-linecap="round"/>
  <path d="M12 21.35l-1.45-1.32C5.4 15.36 2 12.28 2 8.5 2 5.42 4.42 3 7.5 3c1.74 0 3.41.81 4.5 2.09C13.09 3.81 14.76 3 16.5 3 19.58 3 22 5.42 22 8.5c0 3.78-3.4 6.86-8.55 11.54L12 21.35z" transform="translate(438 32) scale(1.17)" fill="#fff" opacity="0.95"/>
  <text x="256" y="115" font-size="88" fill="#8A55D8" opacity="0.35" text-anchor="middle" font-weight="800" letter-spacing="6" font-family="-apple-system, 'Noto Sans CJK SC', 'Microsoft YaHei', sans-serif">九月</text>
  <text x="256" y="112" font-size="88" fill="#fff" text-anchor="middle" font-weight="800" letter-spacing="6" font-family="-apple-system, 'Noto Sans CJK SC', 'Microsoft YaHei', sans-serif">九月</text>
  <path d="M144 218 Q172 204 200 218" stroke="#4E3D33" stroke-width="8" fill="none" stroke-linecap="round"/>
  <path d="M312 218 Q340 204 368 218" stroke="#4E3D33" stroke-width="8" fill="none" stroke-linecap="round"/>
  <circle cx="172" cy="262" r="30" fill="#4E3D33"/>
  <circle cx="162" cy="250" r="11" fill="#fff"/>
  <circle cx="183" cy="273" r="5.5" fill="#fff"/>
  <circle cx="342" cy="262" r="30" fill="#4E3D33"/>
  <circle cx="352" cy="250" r="11" fill="#fff"/>
  <circle cx="331" cy="273" r="5.5" fill="#fff"/>
  <ellipse cx="106" cy="300" rx="27" ry="16" fill="#FFB7C9" opacity="0.9"/>
  <ellipse cx="406" cy="300" rx="27" ry="16" fill="#FFB7C9" opacity="0.9"/>
  <path d="M224 290 Q256 318 288 290" stroke="#4E3D33" stroke-width="10" fill="none" stroke-linecap="round"/>
  <text x="256" y="460" font-size="205" fill="#4E3D33" text-anchor="middle" font-weight="800" font-family="-apple-system, sans-serif">01</text>
  <text x="256" y="504" font-size="44" fill="#8A55D8" text-anchor="middle" font-weight="700" font-family="-apple-system, 'Noto Sans CJK SC', 'Microsoft YaHei', sans-serif">星期二</text>
  <rect x="10" y="10" width="492" height="492" rx="64" fill="none" stroke="#8A55D8" stroke-width="8" opacity="0.16"/>
</svg>